<mxfile host="app.diagrams.net" modified="2023-11-08T05:02:16.597Z" agent="Mozilla/5.0 (Windows NT 10.0; Win64; x64; rv:109.0) Gecko/20100101 Firefox/119.0" etag="eKYGFONl94e3s-RPiLk1" version="22.0.8" type="device">
  <diagram name="Page-1" id="B-Ykamc5Ve8SxCriMSTX">
    <mxGraphModel dx="2390" dy="1243" grid="1" gridSize="10" guides="1" tooltips="1" connect="1" arrows="1" fold="1" page="1" pageScale="1" pageWidth="850" pageHeight="1100" math="0" shadow="0">
      <root>
        <mxCell id="0" />
        <mxCell id="1" parent="0" />
        <mxCell id="SjnLJT28kYMLIZ89We3J-1" value="&lt;div&gt;&lt;span style=&quot;font-weight: normal;&quot;&gt;&amp;lt;&amp;lt;abstract&amp;gt;&amp;gt;&lt;/span&gt;&lt;br&gt;&lt;/div&gt;&lt;div&gt;User&lt;/div&gt;" style="swimlane;fontStyle=1;align=center;verticalAlign=top;childLayout=stackLayout;horizontal=1;startSize=40;horizontalStack=0;resizeParent=1;resizeParentMax=0;resizeLast=0;collapsible=1;marginBottom=0;whiteSpace=wrap;html=1;" vertex="1" parent="1">
          <mxGeometry x="520" y="40" width="200" height="300" as="geometry">
            <mxRectangle x="170" y="130" width="110" height="40" as="alternateBounds" />
          </mxGeometry>
        </mxCell>
        <mxCell id="SjnLJT28kYMLIZ89We3J-2" value="&lt;div&gt;+ id: integer&lt;/div&gt;" style="text;strokeColor=none;fillColor=none;align=left;verticalAlign=top;spacingLeft=4;spacingRight=4;overflow=hidden;rotatable=0;points=[[0,0.5],[1,0.5]];portConstraint=eastwest;whiteSpace=wrap;html=1;" vertex="1" parent="SjnLJT28kYMLIZ89We3J-1">
          <mxGeometry y="40" width="200" height="24" as="geometry" />
        </mxCell>
        <mxCell id="SjnLJT28kYMLIZ89We3J-13" value="&lt;div&gt;+ username: string&lt;/div&gt;" style="text;strokeColor=none;fillColor=none;align=left;verticalAlign=top;spacingLeft=4;spacingRight=4;overflow=hidden;rotatable=0;points=[[0,0.5],[1,0.5]];portConstraint=eastwest;whiteSpace=wrap;html=1;" vertex="1" parent="SjnLJT28kYMLIZ89We3J-1">
          <mxGeometry y="64" width="200" height="24" as="geometry" />
        </mxCell>
        <mxCell id="SjnLJT28kYMLIZ89We3J-14" value="&lt;div&gt;+ first_name: string&lt;/div&gt;" style="text;strokeColor=none;fillColor=none;align=left;verticalAlign=top;spacingLeft=4;spacingRight=4;overflow=hidden;rotatable=0;points=[[0,0.5],[1,0.5]];portConstraint=eastwest;whiteSpace=wrap;html=1;" vertex="1" parent="SjnLJT28kYMLIZ89We3J-1">
          <mxGeometry y="88" width="200" height="24" as="geometry" />
        </mxCell>
        <mxCell id="SjnLJT28kYMLIZ89We3J-15" value="&lt;div&gt;+ last_name: string&lt;/div&gt;" style="text;strokeColor=none;fillColor=none;align=left;verticalAlign=top;spacingLeft=4;spacingRight=4;overflow=hidden;rotatable=0;points=[[0,0.5],[1,0.5]];portConstraint=eastwest;whiteSpace=wrap;html=1;" vertex="1" parent="SjnLJT28kYMLIZ89We3J-1">
          <mxGeometry y="112" width="200" height="24" as="geometry" />
        </mxCell>
        <mxCell id="SjnLJT28kYMLIZ89We3J-16" value="&lt;div&gt;+ user_type: string&lt;/div&gt;" style="text;strokeColor=none;fillColor=none;align=left;verticalAlign=top;spacingLeft=4;spacingRight=4;overflow=hidden;rotatable=0;points=[[0,0.5],[1,0.5]];portConstraint=eastwest;whiteSpace=wrap;html=1;" vertex="1" parent="SjnLJT28kYMLIZ89We3J-1">
          <mxGeometry y="136" width="200" height="24" as="geometry" />
        </mxCell>
        <mxCell id="SjnLJT28kYMLIZ89We3J-17" value="&lt;div&gt;+ password_hash: string&lt;br&gt;&lt;/div&gt;" style="text;strokeColor=none;fillColor=none;align=left;verticalAlign=top;spacingLeft=4;spacingRight=4;overflow=hidden;rotatable=0;points=[[0,0.5],[1,0.5]];portConstraint=eastwest;whiteSpace=wrap;html=1;" vertex="1" parent="SjnLJT28kYMLIZ89We3J-1">
          <mxGeometry y="160" width="200" height="24" as="geometry" />
        </mxCell>
        <mxCell id="SjnLJT28kYMLIZ89We3J-18" value="&lt;div&gt;+ email: string&lt;/div&gt;" style="text;strokeColor=none;fillColor=none;align=left;verticalAlign=top;spacingLeft=4;spacingRight=4;overflow=hidden;rotatable=0;points=[[0,0.5],[1,0.5]];portConstraint=eastwest;whiteSpace=wrap;html=1;" vertex="1" parent="SjnLJT28kYMLIZ89We3J-1">
          <mxGeometry y="184" width="200" height="24" as="geometry" />
        </mxCell>
        <mxCell id="SjnLJT28kYMLIZ89We3J-19" value="+ phone_number: string" style="text;strokeColor=none;fillColor=none;align=left;verticalAlign=top;spacingLeft=4;spacingRight=4;overflow=hidden;rotatable=0;points=[[0,0.5],[1,0.5]];portConstraint=eastwest;whiteSpace=wrap;html=1;" vertex="1" parent="SjnLJT28kYMLIZ89We3J-1">
          <mxGeometry y="208" width="200" height="24" as="geometry" />
        </mxCell>
        <mxCell id="SjnLJT28kYMLIZ89We3J-3" value="" style="line;strokeWidth=1;fillColor=none;align=left;verticalAlign=middle;spacingTop=-1;spacingLeft=3;spacingRight=3;rotatable=0;labelPosition=right;points=[];portConstraint=eastwest;strokeColor=inherit;" vertex="1" parent="SjnLJT28kYMLIZ89We3J-1">
          <mxGeometry y="232" width="200" height="8" as="geometry" />
        </mxCell>
        <mxCell id="SjnLJT28kYMLIZ89We3J-4" value="&lt;div&gt;+ set_password(string)&lt;/div&gt;" style="text;strokeColor=none;fillColor=none;align=left;verticalAlign=top;spacingLeft=4;spacingRight=4;overflow=hidden;rotatable=0;points=[[0,0.5],[1,0.5]];portConstraint=eastwest;whiteSpace=wrap;html=1;" vertex="1" parent="SjnLJT28kYMLIZ89We3J-1">
          <mxGeometry y="240" width="200" height="30" as="geometry" />
        </mxCell>
        <mxCell id="SjnLJT28kYMLIZ89We3J-20" value="+ check_password(string): bool" style="text;strokeColor=none;fillColor=none;align=left;verticalAlign=top;spacingLeft=4;spacingRight=4;overflow=hidden;rotatable=0;points=[[0,0.5],[1,0.5]];portConstraint=eastwest;whiteSpace=wrap;html=1;" vertex="1" parent="SjnLJT28kYMLIZ89We3J-1">
          <mxGeometry y="270" width="200" height="30" as="geometry" />
        </mxCell>
        <mxCell id="SjnLJT28kYMLIZ89We3J-5" value="Extends" style="endArrow=block;endSize=16;endFill=0;html=1;rounded=0;exitX=0.5;exitY=0;exitDx=0;exitDy=0;" edge="1" parent="1" source="SjnLJT28kYMLIZ89We3J-6" target="SjnLJT28kYMLIZ89We3J-20">
          <mxGeometry width="160" relative="1" as="geometry">
            <mxPoint x="210" y="500" as="sourcePoint" />
            <mxPoint x="370" y="500" as="targetPoint" />
          </mxGeometry>
        </mxCell>
        <mxCell id="SjnLJT28kYMLIZ89We3J-6" value="Professor" style="swimlane;fontStyle=0;childLayout=stackLayout;horizontal=1;startSize=26;fillColor=none;horizontalStack=0;resizeParent=1;resizeParentMax=0;resizeLast=0;collapsible=1;marginBottom=0;whiteSpace=wrap;html=1;" vertex="1" parent="1">
          <mxGeometry x="310" y="525" width="140" height="50" as="geometry" />
        </mxCell>
        <mxCell id="SjnLJT28kYMLIZ89We3J-8" value="+ openings: Opening" style="text;strokeColor=none;fillColor=none;align=left;verticalAlign=top;spacingLeft=4;spacingRight=4;overflow=hidden;rotatable=0;points=[[0,0.5],[1,0.5]];portConstraint=eastwest;whiteSpace=wrap;html=1;" vertex="1" parent="SjnLJT28kYMLIZ89We3J-6">
          <mxGeometry y="26" width="140" height="24" as="geometry" />
        </mxCell>
        <mxCell id="SjnLJT28kYMLIZ89We3J-21" value="Opening" style="swimlane;fontStyle=0;childLayout=stackLayout;horizontal=1;startSize=26;fillColor=none;horizontalStack=0;resizeParent=1;resizeParentMax=0;resizeLast=0;collapsible=1;marginBottom=0;whiteSpace=wrap;html=1;" vertex="1" parent="1">
          <mxGeometry x="330" y="812" width="230" height="286" as="geometry" />
        </mxCell>
        <mxCell id="SjnLJT28kYMLIZ89We3J-22" value="+ creator" style="text;strokeColor=none;fillColor=none;align=left;verticalAlign=top;spacingLeft=4;spacingRight=4;overflow=hidden;rotatable=0;points=[[0,0.5],[1,0.5]];portConstraint=eastwest;whiteSpace=wrap;html=1;" vertex="1" parent="SjnLJT28kYMLIZ89We3J-21">
          <mxGeometry y="26" width="230" height="26" as="geometry" />
        </mxCell>
        <mxCell id="SjnLJT28kYMLIZ89We3J-23" value="+ id: integer" style="text;strokeColor=none;fillColor=none;align=left;verticalAlign=top;spacingLeft=4;spacingRight=4;overflow=hidden;rotatable=0;points=[[0,0.5],[1,0.5]];portConstraint=eastwest;whiteSpace=wrap;html=1;" vertex="1" parent="SjnLJT28kYMLIZ89We3J-21">
          <mxGeometry y="52" width="230" height="26" as="geometry" />
        </mxCell>
        <mxCell id="SjnLJT28kYMLIZ89We3J-24" value="+ title: string" style="text;strokeColor=none;fillColor=none;align=left;verticalAlign=top;spacingLeft=4;spacingRight=4;overflow=hidden;rotatable=0;points=[[0,0.5],[1,0.5]];portConstraint=eastwest;whiteSpace=wrap;html=1;" vertex="1" parent="SjnLJT28kYMLIZ89We3J-21">
          <mxGeometry y="78" width="230" height="26" as="geometry" />
        </mxCell>
        <mxCell id="SjnLJT28kYMLIZ89We3J-28" value="+ description: string" style="text;strokeColor=none;fillColor=none;align=left;verticalAlign=top;spacingLeft=4;spacingRight=4;overflow=hidden;rotatable=0;points=[[0,0.5],[1,0.5]];portConstraint=eastwest;whiteSpace=wrap;html=1;" vertex="1" parent="SjnLJT28kYMLIZ89We3J-21">
          <mxGeometry y="104" width="230" height="26" as="geometry" />
        </mxCell>
        <mxCell id="SjnLJT28kYMLIZ89We3J-29" value="+ start: DateTime" style="text;strokeColor=none;fillColor=none;align=left;verticalAlign=top;spacingLeft=4;spacingRight=4;overflow=hidden;rotatable=0;points=[[0,0.5],[1,0.5]];portConstraint=eastwest;whiteSpace=wrap;html=1;" vertex="1" parent="SjnLJT28kYMLIZ89We3J-21">
          <mxGeometry y="130" width="230" height="26" as="geometry" />
        </mxCell>
        <mxCell id="SjnLJT28kYMLIZ89We3J-30" value="+ end: DateTime" style="text;strokeColor=none;fillColor=none;align=left;verticalAlign=top;spacingLeft=4;spacingRight=4;overflow=hidden;rotatable=0;points=[[0,0.5],[1,0.5]];portConstraint=eastwest;whiteSpace=wrap;html=1;" vertex="1" parent="SjnLJT28kYMLIZ89We3J-21">
          <mxGeometry y="156" width="230" height="26" as="geometry" />
        </mxCell>
        <mxCell id="SjnLJT28kYMLIZ89We3J-31" value="+ time_commitment: Integer" style="text;strokeColor=none;fillColor=none;align=left;verticalAlign=top;spacingLeft=4;spacingRight=4;overflow=hidden;rotatable=0;points=[[0,0.5],[1,0.5]];portConstraint=eastwest;whiteSpace=wrap;html=1;" vertex="1" parent="SjnLJT28kYMLIZ89We3J-21">
          <mxGeometry y="182" width="230" height="26" as="geometry" />
        </mxCell>
        <mxCell id="SjnLJT28kYMLIZ89We3J-34" value="+ applications: Application" style="text;strokeColor=none;fillColor=none;align=left;verticalAlign=top;spacingLeft=4;spacingRight=4;overflow=hidden;rotatable=0;points=[[0,0.5],[1,0.5]];portConstraint=eastwest;whiteSpace=wrap;html=1;" vertex="1" parent="SjnLJT28kYMLIZ89We3J-21">
          <mxGeometry y="208" width="230" height="26" as="geometry" />
        </mxCell>
        <mxCell id="SjnLJT28kYMLIZ89We3J-32" value="+ majors: Major" style="text;strokeColor=none;fillColor=none;align=left;verticalAlign=top;spacingLeft=4;spacingRight=4;overflow=hidden;rotatable=0;points=[[0,0.5],[1,0.5]];portConstraint=eastwest;whiteSpace=wrap;html=1;" vertex="1" parent="SjnLJT28kYMLIZ89We3J-21">
          <mxGeometry y="234" width="230" height="26" as="geometry" />
        </mxCell>
        <mxCell id="SjnLJT28kYMLIZ89We3J-33" value="+ programming_languages: ProgLang" style="text;strokeColor=none;fillColor=none;align=left;verticalAlign=top;spacingLeft=4;spacingRight=4;overflow=hidden;rotatable=0;points=[[0,0.5],[1,0.5]];portConstraint=eastwest;whiteSpace=wrap;html=1;" vertex="1" parent="SjnLJT28kYMLIZ89We3J-21">
          <mxGeometry y="260" width="230" height="26" as="geometry" />
        </mxCell>
        <mxCell id="SjnLJT28kYMLIZ89We3J-26" value="1" style="endArrow=open;html=1;endSize=12;startArrow=diamondThin;startSize=14;startFill=1;edgeStyle=orthogonalEdgeStyle;align=left;verticalAlign=bottom;rounded=0;exitX=1;exitY=0.5;exitDx=0;exitDy=0;entryX=0;entryY=0.5;entryDx=0;entryDy=0;" edge="1" parent="1" source="SjnLJT28kYMLIZ89We3J-8" target="SjnLJT28kYMLIZ89We3J-22">
          <mxGeometry x="-1" y="3" relative="1" as="geometry">
            <mxPoint x="300" y="590" as="sourcePoint" />
            <mxPoint x="460" y="590" as="targetPoint" />
            <Array as="points">
              <mxPoint x="480" y="563" />
              <mxPoint x="480" y="707" />
              <mxPoint x="300" y="707" />
              <mxPoint x="300" y="851" />
            </Array>
          </mxGeometry>
        </mxCell>
        <mxCell id="SjnLJT28kYMLIZ89We3J-27" value="&lt;font style=&quot;font-size: 20px;&quot;&gt;*&lt;/font&gt;" style="edgeLabel;html=1;align=center;verticalAlign=middle;resizable=0;points=[];labelBackgroundColor=none;" vertex="1" connectable="0" parent="SjnLJT28kYMLIZ89We3J-26">
          <mxGeometry x="0.9" y="2" relative="1" as="geometry">
            <mxPoint y="-11" as="offset" />
          </mxGeometry>
        </mxCell>
        <mxCell id="SjnLJT28kYMLIZ89We3J-35" value="Student" style="swimlane;fontStyle=0;childLayout=stackLayout;horizontal=1;startSize=26;fillColor=none;horizontalStack=0;resizeParent=1;resizeParentMax=0;resizeLast=0;collapsible=1;marginBottom=0;whiteSpace=wrap;html=1;" vertex="1" parent="1">
          <mxGeometry x="550" y="430" width="240" height="208" as="geometry" />
        </mxCell>
        <mxCell id="SjnLJT28kYMLIZ89We3J-36" value="+ student_id: integer" style="text;strokeColor=none;fillColor=none;align=left;verticalAlign=top;spacingLeft=4;spacingRight=4;overflow=hidden;rotatable=0;points=[[0,0.5],[1,0.5]];portConstraint=eastwest;whiteSpace=wrap;html=1;" vertex="1" parent="SjnLJT28kYMLIZ89We3J-35">
          <mxGeometry y="26" width="240" height="26" as="geometry" />
        </mxCell>
        <mxCell id="SjnLJT28kYMLIZ89We3J-37" value="+ graduation_date: DateTime" style="text;strokeColor=none;fillColor=none;align=left;verticalAlign=top;spacingLeft=4;spacingRight=4;overflow=hidden;rotatable=0;points=[[0,0.5],[1,0.5]];portConstraint=eastwest;whiteSpace=wrap;html=1;" vertex="1" parent="SjnLJT28kYMLIZ89We3J-35">
          <mxGeometry y="52" width="240" height="26" as="geometry" />
        </mxCell>
        <mxCell id="SjnLJT28kYMLIZ89We3J-38" value="+ gpa: float" style="text;strokeColor=none;fillColor=none;align=left;verticalAlign=top;spacingLeft=4;spacingRight=4;overflow=hidden;rotatable=0;points=[[0,0.5],[1,0.5]];portConstraint=eastwest;whiteSpace=wrap;html=1;" vertex="1" parent="SjnLJT28kYMLIZ89We3J-35">
          <mxGeometry y="78" width="240" height="26" as="geometry" />
        </mxCell>
        <mxCell id="SjnLJT28kYMLIZ89We3J-40" value="+ research_history: string" style="text;strokeColor=none;fillColor=none;align=left;verticalAlign=top;spacingLeft=4;spacingRight=4;overflow=hidden;rotatable=0;points=[[0,0.5],[1,0.5]];portConstraint=eastwest;whiteSpace=wrap;html=1;" vertex="1" parent="SjnLJT28kYMLIZ89We3J-35">
          <mxGeometry y="104" width="240" height="26" as="geometry" />
        </mxCell>
        <mxCell id="SjnLJT28kYMLIZ89We3J-41" value="+ majors: Major" style="text;strokeColor=none;fillColor=none;align=left;verticalAlign=top;spacingLeft=4;spacingRight=4;overflow=hidden;rotatable=0;points=[[0,0.5],[1,0.5]];portConstraint=eastwest;whiteSpace=wrap;html=1;" vertex="1" parent="SjnLJT28kYMLIZ89We3J-35">
          <mxGeometry y="130" width="240" height="26" as="geometry" />
        </mxCell>
        <mxCell id="SjnLJT28kYMLIZ89We3J-42" value="+ programming_languages: ProgLang" style="text;strokeColor=none;fillColor=none;align=left;verticalAlign=top;spacingLeft=4;spacingRight=4;overflow=hidden;rotatable=0;points=[[0,0.5],[1,0.5]];portConstraint=eastwest;whiteSpace=wrap;html=1;" vertex="1" parent="SjnLJT28kYMLIZ89We3J-35">
          <mxGeometry y="156" width="240" height="26" as="geometry" />
        </mxCell>
        <mxCell id="SjnLJT28kYMLIZ89We3J-170" value="+ applications: Application" style="text;strokeColor=none;fillColor=none;align=left;verticalAlign=top;spacingLeft=4;spacingRight=4;overflow=hidden;rotatable=0;points=[[0,0.5],[1,0.5]];portConstraint=eastwest;whiteSpace=wrap;html=1;" vertex="1" parent="SjnLJT28kYMLIZ89We3J-35">
          <mxGeometry y="182" width="240" height="26" as="geometry" />
        </mxCell>
        <mxCell id="SjnLJT28kYMLIZ89We3J-39" value="Extends" style="endArrow=block;endSize=16;endFill=0;html=1;rounded=0;exitX=0.5;exitY=0;exitDx=0;exitDy=0;" edge="1" parent="1" source="SjnLJT28kYMLIZ89We3J-35" target="SjnLJT28kYMLIZ89We3J-20">
          <mxGeometry width="160" relative="1" as="geometry">
            <mxPoint x="310" y="480" as="sourcePoint" />
            <mxPoint x="260" y="410" as="targetPoint" />
          </mxGeometry>
        </mxCell>
        <mxCell id="SjnLJT28kYMLIZ89We3J-44" value="Application" style="swimlane;fontStyle=0;childLayout=stackLayout;horizontal=1;startSize=26;fillColor=none;horizontalStack=0;resizeParent=1;resizeParentMax=0;resizeLast=0;collapsible=1;marginBottom=0;whiteSpace=wrap;html=1;" vertex="1" parent="1">
          <mxGeometry x="790" y="758" width="180" height="182" as="geometry" />
        </mxCell>
        <mxCell id="SjnLJT28kYMLIZ89We3J-45" value="+ id: integer" style="text;strokeColor=none;fillColor=none;align=left;verticalAlign=top;spacingLeft=4;spacingRight=4;overflow=hidden;rotatable=0;points=[[0,0.5],[1,0.5]];portConstraint=eastwest;whiteSpace=wrap;html=1;" vertex="1" parent="SjnLJT28kYMLIZ89We3J-44">
          <mxGeometry y="26" width="180" height="26" as="geometry" />
        </mxCell>
        <mxCell id="SjnLJT28kYMLIZ89We3J-46" value="+ interest_statement: string" style="text;strokeColor=none;fillColor=none;align=left;verticalAlign=top;spacingLeft=4;spacingRight=4;overflow=hidden;rotatable=0;points=[[0,0.5],[1,0.5]];portConstraint=eastwest;whiteSpace=wrap;html=1;" vertex="1" parent="SjnLJT28kYMLIZ89We3J-44">
          <mxGeometry y="52" width="180" height="26" as="geometry" />
        </mxCell>
        <mxCell id="SjnLJT28kYMLIZ89We3J-47" value="+ reference_name: string" style="text;strokeColor=none;fillColor=none;align=left;verticalAlign=top;spacingLeft=4;spacingRight=4;overflow=hidden;rotatable=0;points=[[0,0.5],[1,0.5]];portConstraint=eastwest;whiteSpace=wrap;html=1;" vertex="1" parent="SjnLJT28kYMLIZ89We3J-44">
          <mxGeometry y="78" width="180" height="26" as="geometry" />
        </mxCell>
        <mxCell id="SjnLJT28kYMLIZ89We3J-49" value="+ reference_email: string" style="text;strokeColor=none;fillColor=none;align=left;verticalAlign=top;spacingLeft=4;spacingRight=4;overflow=hidden;rotatable=0;points=[[0,0.5],[1,0.5]];portConstraint=eastwest;whiteSpace=wrap;html=1;" vertex="1" parent="SjnLJT28kYMLIZ89We3J-44">
          <mxGeometry y="104" width="180" height="26" as="geometry" />
        </mxCell>
        <mxCell id="SjnLJT28kYMLIZ89We3J-50" value="+ applicant: Student" style="text;strokeColor=none;fillColor=none;align=left;verticalAlign=top;spacingLeft=4;spacingRight=4;overflow=hidden;rotatable=0;points=[[0,0.5],[1,0.5]];portConstraint=eastwest;whiteSpace=wrap;html=1;" vertex="1" parent="SjnLJT28kYMLIZ89We3J-44">
          <mxGeometry y="130" width="180" height="26" as="geometry" />
        </mxCell>
        <mxCell id="SjnLJT28kYMLIZ89We3J-51" value="+ opening: Opening" style="text;strokeColor=none;fillColor=none;align=left;verticalAlign=top;spacingLeft=4;spacingRight=4;overflow=hidden;rotatable=0;points=[[0,0.5],[1,0.5]];portConstraint=eastwest;whiteSpace=wrap;html=1;" vertex="1" parent="SjnLJT28kYMLIZ89We3J-44">
          <mxGeometry y="156" width="180" height="26" as="geometry" />
        </mxCell>
        <mxCell id="SjnLJT28kYMLIZ89We3J-53" value="1" style="endArrow=open;html=1;endSize=12;startArrow=diamondThin;startSize=14;startFill=1;edgeStyle=orthogonalEdgeStyle;align=left;verticalAlign=bottom;rounded=0;entryX=0;entryY=0.5;entryDx=0;entryDy=0;" edge="1" parent="1" source="SjnLJT28kYMLIZ89We3J-34" target="SjnLJT28kYMLIZ89We3J-51">
          <mxGeometry x="-0.9405" relative="1" as="geometry">
            <mxPoint x="610" y="870" as="sourcePoint" />
            <mxPoint x="770" y="870" as="targetPoint" />
            <mxPoint as="offset" />
          </mxGeometry>
        </mxCell>
        <mxCell id="SjnLJT28kYMLIZ89We3J-54" value="Major" style="swimlane;fontStyle=0;childLayout=stackLayout;horizontal=1;startSize=26;fillColor=none;horizontalStack=0;resizeParent=1;resizeParentMax=0;resizeLast=0;collapsible=1;marginBottom=0;whiteSpace=wrap;html=1;" vertex="1" parent="1">
          <mxGeometry x="1220" y="812" width="140" height="130" as="geometry" />
        </mxCell>
        <mxCell id="SjnLJT28kYMLIZ89We3J-55" value="+ id: integer" style="text;strokeColor=none;fillColor=none;align=left;verticalAlign=top;spacingLeft=4;spacingRight=4;overflow=hidden;rotatable=0;points=[[0,0.5],[1,0.5]];portConstraint=eastwest;whiteSpace=wrap;html=1;" vertex="1" parent="SjnLJT28kYMLIZ89We3J-54">
          <mxGeometry y="26" width="140" height="26" as="geometry" />
        </mxCell>
        <mxCell id="SjnLJT28kYMLIZ89We3J-57" value="+ name: string" style="text;strokeColor=none;fillColor=none;align=left;verticalAlign=top;spacingLeft=4;spacingRight=4;overflow=hidden;rotatable=0;points=[[0,0.5],[1,0.5]];portConstraint=eastwest;whiteSpace=wrap;html=1;" vertex="1" parent="SjnLJT28kYMLIZ89We3J-54">
          <mxGeometry y="52" width="140" height="26" as="geometry" />
        </mxCell>
        <mxCell id="SjnLJT28kYMLIZ89We3J-58" value="+ students: Student" style="text;strokeColor=none;fillColor=none;align=left;verticalAlign=top;spacingLeft=4;spacingRight=4;overflow=hidden;rotatable=0;points=[[0,0.5],[1,0.5]];portConstraint=eastwest;whiteSpace=wrap;html=1;" vertex="1" parent="SjnLJT28kYMLIZ89We3J-54">
          <mxGeometry y="78" width="140" height="26" as="geometry" />
        </mxCell>
        <mxCell id="SjnLJT28kYMLIZ89We3J-89" value="+ openings: Opening" style="text;strokeColor=none;fillColor=none;align=left;verticalAlign=top;spacingLeft=4;spacingRight=4;overflow=hidden;rotatable=0;points=[[0,0.5],[1,0.5]];portConstraint=eastwest;whiteSpace=wrap;html=1;" vertex="1" parent="SjnLJT28kYMLIZ89We3J-54">
          <mxGeometry y="104" width="140" height="26" as="geometry" />
        </mxCell>
        <mxCell id="SjnLJT28kYMLIZ89We3J-70" value="&lt;font style=&quot;font-size: 20px;&quot;&gt;*&lt;/font&gt;" style="endArrow=diamondThin;html=1;endSize=12;startArrow=open;startSize=14;startFill=0;edgeStyle=orthogonalEdgeStyle;align=left;verticalAlign=bottom;rounded=0;exitX=1;exitY=0.5;exitDx=0;exitDy=0;entryX=0;entryY=0.5;entryDx=0;entryDy=0;labelBackgroundColor=none;endFill=1;" edge="1" parent="1" source="SjnLJT28kYMLIZ89We3J-72" target="SjnLJT28kYMLIZ89We3J-58">
          <mxGeometry x="-0.9006" y="-15" relative="1" as="geometry">
            <mxPoint x="730" y="690" as="sourcePoint" />
            <mxPoint x="760" y="847" as="targetPoint" />
            <Array as="points">
              <mxPoint x="1150" y="635" />
              <mxPoint x="1150" y="903" />
            </Array>
            <mxPoint as="offset" />
          </mxGeometry>
        </mxCell>
        <mxCell id="SjnLJT28kYMLIZ89We3J-80" value="&lt;font style=&quot;font-size: 12px;&quot;&gt;1&lt;/font&gt;" style="edgeLabel;html=1;align=center;verticalAlign=middle;resizable=0;points=[];labelBackgroundColor=none;" vertex="1" connectable="0" parent="SjnLJT28kYMLIZ89We3J-70">
          <mxGeometry x="0.8341" y="-2" relative="1" as="geometry">
            <mxPoint y="-9" as="offset" />
          </mxGeometry>
        </mxCell>
        <mxCell id="SjnLJT28kYMLIZ89We3J-71" value="" style="endArrow=open;html=1;endSize=12;startArrow=diamondThin;startSize=14;startFill=1;edgeStyle=orthogonalEdgeStyle;align=left;verticalAlign=bottom;rounded=0;exitX=1;exitY=0.5;exitDx=0;exitDy=0;entryX=0;entryY=0.5;entryDx=0;entryDy=0;" edge="1" parent="1" source="SjnLJT28kYMLIZ89We3J-41" target="SjnLJT28kYMLIZ89We3J-72">
          <mxGeometry x="-1" y="3" relative="1" as="geometry">
            <mxPoint x="650" y="669" as="sourcePoint" />
            <mxPoint x="940" y="1029" as="targetPoint" />
          </mxGeometry>
        </mxCell>
        <mxCell id="SjnLJT28kYMLIZ89We3J-73" value="1" style="edgeLabel;html=1;align=center;verticalAlign=middle;resizable=0;points=[];fontSize=12;labelBackgroundColor=none;" vertex="1" connectable="0" parent="SjnLJT28kYMLIZ89We3J-71">
          <mxGeometry x="-0.8271" y="1" relative="1" as="geometry">
            <mxPoint x="-11" y="-8" as="offset" />
          </mxGeometry>
        </mxCell>
        <mxCell id="SjnLJT28kYMLIZ89We3J-76" value="&lt;div&gt;&lt;br&gt;&lt;/div&gt;&lt;div&gt;&lt;br&gt;&lt;/div&gt;" style="edgeLabel;html=1;align=center;verticalAlign=middle;resizable=0;points=[];" vertex="1" connectable="0" parent="SjnLJT28kYMLIZ89We3J-71">
          <mxGeometry x="0.9101" y="3" relative="1" as="geometry">
            <mxPoint as="offset" />
          </mxGeometry>
        </mxCell>
        <mxCell id="SjnLJT28kYMLIZ89We3J-77" value="&lt;div&gt;&lt;br&gt;&lt;/div&gt;" style="edgeLabel;html=1;align=center;verticalAlign=middle;resizable=0;points=[];" vertex="1" connectable="0" parent="SjnLJT28kYMLIZ89We3J-71">
          <mxGeometry x="0.927" y="1" relative="1" as="geometry">
            <mxPoint as="offset" />
          </mxGeometry>
        </mxCell>
        <mxCell id="SjnLJT28kYMLIZ89We3J-78" value="&lt;font style=&quot;font-size: 20px;&quot;&gt;*&lt;/font&gt;" style="edgeLabel;html=1;align=center;verticalAlign=middle;resizable=0;points=[];labelBackgroundColor=none;" vertex="1" connectable="0" parent="SjnLJT28kYMLIZ89We3J-71">
          <mxGeometry x="0.9213" y="-2" relative="1" as="geometry">
            <mxPoint x="-6" y="-7" as="offset" />
          </mxGeometry>
        </mxCell>
        <mxCell id="SjnLJT28kYMLIZ89We3J-72" value="&lt;div&gt;majoring_in&lt;/div&gt;&lt;div&gt;&amp;lt;&amp;lt;association table&amp;gt;&amp;gt;&lt;br&gt;&lt;/div&gt;" style="html=1;whiteSpace=wrap;" vertex="1" parent="1">
          <mxGeometry x="890" y="610" width="135" height="50" as="geometry" />
        </mxCell>
        <mxCell id="SjnLJT28kYMLIZ89We3J-90" value="&lt;font style=&quot;font-size: 20px;&quot;&gt;*&lt;/font&gt;" style="endArrow=diamondThin;html=1;endSize=12;startArrow=open;startSize=14;startFill=0;edgeStyle=orthogonalEdgeStyle;align=left;verticalAlign=bottom;rounded=0;exitX=1;exitY=0.5;exitDx=0;exitDy=0;entryX=0;entryY=0.5;entryDx=0;entryDy=0;labelBackgroundColor=none;endFill=1;" edge="1" parent="1" source="SjnLJT28kYMLIZ89We3J-97" target="SjnLJT28kYMLIZ89We3J-89">
          <mxGeometry x="-0.869" y="-15" relative="1" as="geometry">
            <mxPoint x="670" y="852" as="sourcePoint" />
            <mxPoint x="1010" y="1056" as="targetPoint" />
            <mxPoint as="offset" />
            <Array as="points">
              <mxPoint x="1070" y="1059" />
              <mxPoint x="1070" y="929" />
            </Array>
          </mxGeometry>
        </mxCell>
        <mxCell id="SjnLJT28kYMLIZ89We3J-91" value="&lt;font style=&quot;font-size: 12px;&quot;&gt;1&lt;/font&gt;" style="edgeLabel;html=1;align=center;verticalAlign=middle;resizable=0;points=[];labelBackgroundColor=none;" vertex="1" connectable="0" parent="SjnLJT28kYMLIZ89We3J-90">
          <mxGeometry x="0.8341" y="-2" relative="1" as="geometry">
            <mxPoint x="-6" y="-9" as="offset" />
          </mxGeometry>
        </mxCell>
        <mxCell id="SjnLJT28kYMLIZ89We3J-92" value="" style="endArrow=open;html=1;endSize=12;startArrow=diamondThin;startSize=14;startFill=1;edgeStyle=orthogonalEdgeStyle;align=left;verticalAlign=bottom;rounded=0;exitX=1;exitY=0.5;exitDx=0;exitDy=0;entryX=0;entryY=0.5;entryDx=0;entryDy=0;" edge="1" parent="1" target="SjnLJT28kYMLIZ89We3J-97" source="SjnLJT28kYMLIZ89We3J-32">
          <mxGeometry x="-1" y="3" relative="1" as="geometry">
            <mxPoint x="560" y="1062" as="sourcePoint" />
            <mxPoint x="880" y="1191" as="targetPoint" />
          </mxGeometry>
        </mxCell>
        <mxCell id="SjnLJT28kYMLIZ89We3J-93" value="1" style="edgeLabel;html=1;align=center;verticalAlign=middle;resizable=0;points=[];fontSize=12;labelBackgroundColor=none;" vertex="1" connectable="0" parent="SjnLJT28kYMLIZ89We3J-92">
          <mxGeometry x="-0.8271" y="1" relative="1" as="geometry">
            <mxPoint x="-11" y="-8" as="offset" />
          </mxGeometry>
        </mxCell>
        <mxCell id="SjnLJT28kYMLIZ89We3J-94" value="&lt;div&gt;&lt;br&gt;&lt;/div&gt;&lt;div&gt;&lt;br&gt;&lt;/div&gt;" style="edgeLabel;html=1;align=center;verticalAlign=middle;resizable=0;points=[];" vertex="1" connectable="0" parent="SjnLJT28kYMLIZ89We3J-92">
          <mxGeometry x="0.9101" y="3" relative="1" as="geometry">
            <mxPoint as="offset" />
          </mxGeometry>
        </mxCell>
        <mxCell id="SjnLJT28kYMLIZ89We3J-95" value="&lt;div&gt;&lt;br&gt;&lt;/div&gt;" style="edgeLabel;html=1;align=center;verticalAlign=middle;resizable=0;points=[];" vertex="1" connectable="0" parent="SjnLJT28kYMLIZ89We3J-92">
          <mxGeometry x="0.927" y="1" relative="1" as="geometry">
            <mxPoint as="offset" />
          </mxGeometry>
        </mxCell>
        <mxCell id="SjnLJT28kYMLIZ89We3J-96" value="&lt;font style=&quot;font-size: 20px;&quot;&gt;*&lt;/font&gt;" style="edgeLabel;html=1;align=center;verticalAlign=middle;resizable=0;points=[];labelBackgroundColor=none;" vertex="1" connectable="0" parent="SjnLJT28kYMLIZ89We3J-92">
          <mxGeometry x="0.9213" y="-2" relative="1" as="geometry">
            <mxPoint x="-6" y="-7" as="offset" />
          </mxGeometry>
        </mxCell>
        <mxCell id="SjnLJT28kYMLIZ89We3J-97" value="&lt;div&gt;expects_major&lt;/div&gt;&lt;div&gt;&amp;lt;&amp;lt;association table&amp;gt;&amp;gt;&lt;br&gt;&lt;/div&gt;" style="html=1;whiteSpace=wrap;" vertex="1" parent="1">
          <mxGeometry x="800" y="1034" width="135" height="50" as="geometry" />
        </mxCell>
        <mxCell id="SjnLJT28kYMLIZ89We3J-149" value="ProgLang" style="swimlane;fontStyle=0;childLayout=stackLayout;horizontal=1;startSize=26;fillColor=none;horizontalStack=0;resizeParent=1;resizeParentMax=0;resizeLast=0;collapsible=1;marginBottom=0;whiteSpace=wrap;html=1;" vertex="1" parent="1">
          <mxGeometry x="1220" y="970" width="140" height="130" as="geometry" />
        </mxCell>
        <mxCell id="SjnLJT28kYMLIZ89We3J-150" value="+ id: integer" style="text;strokeColor=none;fillColor=none;align=left;verticalAlign=top;spacingLeft=4;spacingRight=4;overflow=hidden;rotatable=0;points=[[0,0.5],[1,0.5]];portConstraint=eastwest;whiteSpace=wrap;html=1;" vertex="1" parent="SjnLJT28kYMLIZ89We3J-149">
          <mxGeometry y="26" width="140" height="26" as="geometry" />
        </mxCell>
        <mxCell id="SjnLJT28kYMLIZ89We3J-151" value="+ name: string" style="text;strokeColor=none;fillColor=none;align=left;verticalAlign=top;spacingLeft=4;spacingRight=4;overflow=hidden;rotatable=0;points=[[0,0.5],[1,0.5]];portConstraint=eastwest;whiteSpace=wrap;html=1;" vertex="1" parent="SjnLJT28kYMLIZ89We3J-149">
          <mxGeometry y="52" width="140" height="26" as="geometry" />
        </mxCell>
        <mxCell id="SjnLJT28kYMLIZ89We3J-152" value="+ students: Student" style="text;strokeColor=none;fillColor=none;align=left;verticalAlign=top;spacingLeft=4;spacingRight=4;overflow=hidden;rotatable=0;points=[[0,0.5],[1,0.5]];portConstraint=eastwest;whiteSpace=wrap;html=1;" vertex="1" parent="SjnLJT28kYMLIZ89We3J-149">
          <mxGeometry y="78" width="140" height="26" as="geometry" />
        </mxCell>
        <mxCell id="SjnLJT28kYMLIZ89We3J-153" value="+ openings: Opening" style="text;strokeColor=none;fillColor=none;align=left;verticalAlign=top;spacingLeft=4;spacingRight=4;overflow=hidden;rotatable=0;points=[[0,0.5],[1,0.5]];portConstraint=eastwest;whiteSpace=wrap;html=1;" vertex="1" parent="SjnLJT28kYMLIZ89We3J-149">
          <mxGeometry y="104" width="140" height="26" as="geometry" />
        </mxCell>
        <mxCell id="SjnLJT28kYMLIZ89We3J-154" value="&lt;font style=&quot;font-size: 20px;&quot;&gt;*&lt;/font&gt;" style="endArrow=diamondThin;html=1;endSize=12;startArrow=open;startSize=14;startFill=0;edgeStyle=orthogonalEdgeStyle;align=left;verticalAlign=bottom;rounded=0;entryX=0;entryY=0.5;entryDx=0;entryDy=0;labelBackgroundColor=none;endFill=1;exitX=1;exitY=0.5;exitDx=0;exitDy=0;" edge="1" parent="1" source="SjnLJT28kYMLIZ89We3J-161" target="SjnLJT28kYMLIZ89We3J-152">
          <mxGeometry x="-0.9145" y="-13" relative="1" as="geometry">
            <mxPoint x="1070" y="680" as="sourcePoint" />
            <mxPoint x="760" y="1000.5" as="targetPoint" />
            <mxPoint as="offset" />
            <Array as="points">
              <mxPoint x="1110" y="695" />
              <mxPoint x="1110" y="1057" />
            </Array>
          </mxGeometry>
        </mxCell>
        <mxCell id="SjnLJT28kYMLIZ89We3J-155" value="&lt;font style=&quot;font-size: 12px;&quot;&gt;1&lt;/font&gt;" style="edgeLabel;html=1;align=center;verticalAlign=middle;resizable=0;points=[];labelBackgroundColor=none;" vertex="1" connectable="0" parent="SjnLJT28kYMLIZ89We3J-154">
          <mxGeometry x="0.8341" y="-2" relative="1" as="geometry">
            <mxPoint x="9" y="-12" as="offset" />
          </mxGeometry>
        </mxCell>
        <mxCell id="SjnLJT28kYMLIZ89We3J-156" value="" style="endArrow=open;html=1;endSize=12;startArrow=diamondThin;startSize=14;startFill=1;edgeStyle=orthogonalEdgeStyle;align=left;verticalAlign=bottom;rounded=0;exitX=1;exitY=0.5;exitDx=0;exitDy=0;entryX=0;entryY=0.5;entryDx=0;entryDy=0;" edge="1" parent="1" target="SjnLJT28kYMLIZ89We3J-161" source="SjnLJT28kYMLIZ89We3J-42">
          <mxGeometry x="-1" y="3" relative="1" as="geometry">
            <mxPoint x="650" y="672.5" as="sourcePoint" />
            <mxPoint x="940" y="1182.5" as="targetPoint" />
          </mxGeometry>
        </mxCell>
        <mxCell id="SjnLJT28kYMLIZ89We3J-157" value="1" style="edgeLabel;html=1;align=center;verticalAlign=middle;resizable=0;points=[];fontSize=12;labelBackgroundColor=none;" vertex="1" connectable="0" parent="SjnLJT28kYMLIZ89We3J-156">
          <mxGeometry x="-0.8271" y="1" relative="1" as="geometry">
            <mxPoint x="-11" y="-8" as="offset" />
          </mxGeometry>
        </mxCell>
        <mxCell id="SjnLJT28kYMLIZ89We3J-158" value="&lt;div&gt;&lt;br&gt;&lt;/div&gt;&lt;div&gt;&lt;br&gt;&lt;/div&gt;" style="edgeLabel;html=1;align=center;verticalAlign=middle;resizable=0;points=[];" vertex="1" connectable="0" parent="SjnLJT28kYMLIZ89We3J-156">
          <mxGeometry x="0.9101" y="3" relative="1" as="geometry">
            <mxPoint as="offset" />
          </mxGeometry>
        </mxCell>
        <mxCell id="SjnLJT28kYMLIZ89We3J-159" value="&lt;div&gt;&lt;br&gt;&lt;/div&gt;" style="edgeLabel;html=1;align=center;verticalAlign=middle;resizable=0;points=[];" vertex="1" connectable="0" parent="SjnLJT28kYMLIZ89We3J-156">
          <mxGeometry x="0.927" y="1" relative="1" as="geometry">
            <mxPoint as="offset" />
          </mxGeometry>
        </mxCell>
        <mxCell id="SjnLJT28kYMLIZ89We3J-160" value="&lt;font style=&quot;font-size: 20px;&quot;&gt;*&lt;/font&gt;" style="edgeLabel;html=1;align=center;verticalAlign=middle;resizable=0;points=[];labelBackgroundColor=none;" vertex="1" connectable="0" parent="SjnLJT28kYMLIZ89We3J-156">
          <mxGeometry x="0.9213" y="-2" relative="1" as="geometry">
            <mxPoint x="-6" y="-7" as="offset" />
          </mxGeometry>
        </mxCell>
        <mxCell id="SjnLJT28kYMLIZ89We3J-161" value="&lt;div&gt;knows_language&lt;/div&gt;&lt;div&gt;&amp;lt;&amp;lt;association table&amp;gt;&amp;gt;&lt;br&gt;&lt;/div&gt;" style="html=1;whiteSpace=wrap;" vertex="1" parent="1">
          <mxGeometry x="890" y="684" width="135" height="50" as="geometry" />
        </mxCell>
        <mxCell id="SjnLJT28kYMLIZ89We3J-162" value="&lt;font style=&quot;font-size: 20px;&quot;&gt;*&lt;/font&gt;" style="endArrow=diamondThin;html=1;endSize=12;startArrow=open;startSize=14;startFill=0;edgeStyle=orthogonalEdgeStyle;align=left;verticalAlign=bottom;rounded=0;exitX=1;exitY=0.5;exitDx=0;exitDy=0;entryX=0;entryY=0.5;entryDx=0;entryDy=0;labelBackgroundColor=none;endFill=1;" edge="1" parent="1" source="SjnLJT28kYMLIZ89We3J-169" target="SjnLJT28kYMLIZ89We3J-153">
          <mxGeometry x="-0.869" y="-15" relative="1" as="geometry">
            <mxPoint x="670" y="1005.5" as="sourcePoint" />
            <mxPoint x="1010" y="1209.5" as="targetPoint" />
            <mxPoint as="offset" />
          </mxGeometry>
        </mxCell>
        <mxCell id="SjnLJT28kYMLIZ89We3J-163" value="&lt;font style=&quot;font-size: 12px;&quot;&gt;1&lt;/font&gt;" style="edgeLabel;html=1;align=center;verticalAlign=middle;resizable=0;points=[];labelBackgroundColor=none;" vertex="1" connectable="0" parent="SjnLJT28kYMLIZ89We3J-162">
          <mxGeometry x="0.8341" y="-2" relative="1" as="geometry">
            <mxPoint x="-6" y="-9" as="offset" />
          </mxGeometry>
        </mxCell>
        <mxCell id="SjnLJT28kYMLIZ89We3J-164" value="" style="endArrow=open;html=1;endSize=12;startArrow=diamondThin;startSize=14;startFill=1;edgeStyle=orthogonalEdgeStyle;align=left;verticalAlign=bottom;rounded=0;exitX=1;exitY=0.5;exitDx=0;exitDy=0;entryX=0;entryY=0.5;entryDx=0;entryDy=0;" edge="1" parent="1" target="SjnLJT28kYMLIZ89We3J-169" source="SjnLJT28kYMLIZ89We3J-33">
          <mxGeometry x="-1" y="3" relative="1" as="geometry">
            <mxPoint x="560" y="1212.5" as="sourcePoint" />
            <mxPoint x="880" y="1344.5" as="targetPoint" />
          </mxGeometry>
        </mxCell>
        <mxCell id="SjnLJT28kYMLIZ89We3J-165" value="1" style="edgeLabel;html=1;align=center;verticalAlign=middle;resizable=0;points=[];fontSize=12;labelBackgroundColor=none;" vertex="1" connectable="0" parent="SjnLJT28kYMLIZ89We3J-164">
          <mxGeometry x="-0.8271" y="1" relative="1" as="geometry">
            <mxPoint x="-11" y="-8" as="offset" />
          </mxGeometry>
        </mxCell>
        <mxCell id="SjnLJT28kYMLIZ89We3J-166" value="&lt;div&gt;&lt;br&gt;&lt;/div&gt;&lt;div&gt;&lt;br&gt;&lt;/div&gt;" style="edgeLabel;html=1;align=center;verticalAlign=middle;resizable=0;points=[];" vertex="1" connectable="0" parent="SjnLJT28kYMLIZ89We3J-164">
          <mxGeometry x="0.9101" y="3" relative="1" as="geometry">
            <mxPoint as="offset" />
          </mxGeometry>
        </mxCell>
        <mxCell id="SjnLJT28kYMLIZ89We3J-167" value="&lt;div&gt;&lt;br&gt;&lt;/div&gt;" style="edgeLabel;html=1;align=center;verticalAlign=middle;resizable=0;points=[];" vertex="1" connectable="0" parent="SjnLJT28kYMLIZ89We3J-164">
          <mxGeometry x="0.927" y="1" relative="1" as="geometry">
            <mxPoint as="offset" />
          </mxGeometry>
        </mxCell>
        <mxCell id="SjnLJT28kYMLIZ89We3J-168" value="&lt;font style=&quot;font-size: 20px;&quot;&gt;*&lt;/font&gt;" style="edgeLabel;html=1;align=center;verticalAlign=middle;resizable=0;points=[];labelBackgroundColor=none;" vertex="1" connectable="0" parent="SjnLJT28kYMLIZ89We3J-164">
          <mxGeometry x="0.9213" y="-2" relative="1" as="geometry">
            <mxPoint x="-6" y="-7" as="offset" />
          </mxGeometry>
        </mxCell>
        <mxCell id="SjnLJT28kYMLIZ89We3J-169" value="&lt;div&gt;expects_language&lt;/div&gt;&lt;div&gt;&amp;lt;&amp;lt;association table&amp;gt;&amp;gt;&lt;br&gt;&lt;/div&gt;" style="html=1;whiteSpace=wrap;" vertex="1" parent="1">
          <mxGeometry x="800" y="1120" width="135" height="50" as="geometry" />
        </mxCell>
        <mxCell id="SjnLJT28kYMLIZ89We3J-171" value="1" style="endArrow=open;html=1;endSize=12;startArrow=diamondThin;startSize=14;startFill=1;edgeStyle=orthogonalEdgeStyle;align=left;verticalAlign=bottom;rounded=0;exitX=1;exitY=0.5;exitDx=0;exitDy=0;entryX=0;entryY=0.5;entryDx=0;entryDy=0;" edge="1" parent="1" source="SjnLJT28kYMLIZ89We3J-170" target="SjnLJT28kYMLIZ89We3J-50">
          <mxGeometry x="-0.9387" y="5" relative="1" as="geometry">
            <mxPoint x="600" y="780" as="sourcePoint" />
            <mxPoint x="760" y="780" as="targetPoint" />
            <mxPoint as="offset" />
          </mxGeometry>
        </mxCell>
      </root>
    </mxGraphModel>
  </diagram>
</mxfile>
